HIERARCHY
ROOT Hips
{
	OFFSET -0.001795 -0.223333 0.028219
	CHANNELS 6 Xposition Yposition Zposition Zrotation Yrotation Xrotation 
	JOINT LeftUpLeg
	{
		OFFSET 0.069520 -0.091406 -0.006815
		CHANNELS 3 Zrotation Yrotation Xrotation
		JOINT LeftLeg
		{
			OFFSET 0.034277 -0.375199 -0.004496
			CHANNELS 3 Zrotation Yrotation Xrotation
			JOINT LeftFoot
			{
				OFFSET -0.013596 -0.397961 -0.043693
				CHANNELS 3 Zrotation Yrotation Xrotation
				JOINT LeftToe
				{
					OFFSET 0.026358 -0.055791 0.119288
					CHANNELS 3 Zrotation Yrotation Xrotation
					End Site
					{
						OFFSET 0.000000 0.000000 0.000000
					}
				}
			}
		}
	}
	JOINT RightUpLeg
	{
		OFFSET -0.067670 -0.090522 -0.004320
		CHANNELS 3 Zrotation Yrotation Xrotation
		JOINT RightLeg
		{
			OFFSET -0.038290 -0.382569 -0.008850
			CHANNELS 3 Zrotation Yrotation Xrotation
			JOINT RightFoot
			{
				OFFSET 0.015774 -0.398415 -0.042312
				CHANNELS 3 Zrotation Yrotation Xrotation
				JOINT RightToe
				{
					OFFSET -0.025372 -0.048144 0.123348
					CHANNELS 3 Zrotation Yrotation Xrotation
					End Site
					{
						OFFSET 0.000000 0.000000 0.000000
					}
				}
			}
		}
	}
	JOINT Spine
	{
		OFFSET -0.002533 0.108963 -0.026696
		CHANNELS 3 Zrotation Yrotation Xrotation
		JOINT Spine1
		{
			OFFSET 0.005487 0.135180 0.001092
			CHANNELS 3 Zrotation Yrotation Xrotation
			JOINT Spine2
			{
				OFFSET 0.001457 0.052922 0.025425
				CHANNELS 3 Zrotation Yrotation Xrotation
				JOINT Neck
				{
					OFFSET -0.002778 0.213870 -0.042857
					CHANNELS 3 Zrotation Yrotation Xrotation
					JOINT Head
					{
						OFFSET 0.005152 0.064970 0.051349
						CHANNELS 3 Zrotation Yrotation Xrotation
						End Site
						{
							OFFSET 0.000000 0.000000 0.000000
						}
					}
				}
				JOINT LeftShoulder
				{
					OFFSET 0.078845 0.121749 -0.034090
					CHANNELS 3 Zrotation Yrotation Xrotation
					JOINT LeftArm
					{
						OFFSET 0.090977 0.030469 -0.008868
						CHANNELS 3 Zrotation Yrotation Xrotation
						JOINT LeftForeArm
						{
							OFFSET 0.259612 -0.012772 -0.027456
							CHANNELS 3 Zrotation Yrotation Xrotation
							JOINT LeftHand
							{
								OFFSET 0.249234 0.008986 -0.001171
								CHANNELS 3 Zrotation Yrotation Xrotation
								End Site
								{
									OFFSET 0.000000 0.000000 0.000000
								}
							}
						}
					}
				}
				JOINT RightShoulder
				{
					OFFSET -0.081759 0.118833 -0.038615
					CHANNELS 3 Zrotation Yrotation Xrotation
					JOINT RightArm
					{
						OFFSET -0.096012 0.032551 -0.009143
						CHANNELS 3 Zrotation Yrotation Xrotation
						JOINT RightForeArm
						{
							OFFSET -0.253742 -0.013329 -0.021401
							CHANNELS 3 Zrotation Yrotation Xrotation
							JOINT RightHand
							{
								OFFSET -0.255298 0.007772 -0.005559
								CHANNELS 3 Zrotation Yrotation Xrotation
								End Site
								{
									OFFSET 0.000000 0.000000 0.000000
								}
							}
						}
					}
				}
			}
		}
	}
}
MOTION
Frames: 8
Frame Time: 0.050000
-0.520140 0.920572 -0.865534 -5.608337 -8.780659 -6.830205 6.239001 0.308733 3.315276 -16.867345 3.716005 10.231678 11.337597 22.852514 6.093914 0.000000 0.000000 0.000000 -13.079448 0.336463 -15.670626 3.684935 1.094342 34.829810 -3.998157 -15.740246 27.112560 0.000000 0.000000 0.000000 3.041637 -1.184515 24.759443 -2.995035 1.607078 3.851877 -0.106994 6.283602 3.215199 9.410156 -4.496292 -15.131981 0.000000 0.000000 0.000000 -28.823705 -11.994894 3.573512 -4.114670 3.979154 -0.381551 53.275889 -27.432656 -12.789683 0.000000 0.000000 0.000000 35.784032 3.423128 0.046135 23.308746 -10.416598 -4.004173 -58.907102 39.870233 -20.092938 0.000000 0.000000 0.000000 
-0.507529 0.921607 -0.865904 -4.655269 -10.038349 -7.706397 4.892007 0.501876 5.839784 -17.933170 3.613666 6.979778 11.383796 22.880554 7.540925 0.000000 0.000000 0.000000 -12.990207 0.372055 -13.841674 3.369778 1.246960 32.722671 -3.778333 -15.303597 24.230521 0.000000 0.000000 0.000000 2.805254 -1.022177 23.882916 -2.857040 1.543847 3.708357 -0.546322 6.496882 2.581496 8.574256 -3.987171 -15.058758 0.000000 0.000000 0.000000 -28.515345 -12.102754 3.720330 -3.634941 3.784857 -0.319974 50.693505 -25.069177 -10.953777 0.000000 0.000000 0.000000 37.156719 3.599090 -0.077611 23.054484 -11.155421 -4.030818 -52.328624 38.398000 -16.706554 0.000000 0.000000 0.000000 
-0.499803 0.920954 -0.866944 -4.024286 -10.598231 -8.468003 4.010715 0.668799 7.542999 -18.535903 3.508282 5.016512 11.311235 22.780521 7.963858 0.000000 0.000000 0.000000 -13.080345 0.367144 -12.912607 2.913003 1.378112 31.251589 -3.872508 -15.309100 22.589782 0.000000 0.000000 0.000000 2.960573 -0.980770 22.763155 -2.857590 1.556243 3.792318 -0.489845 5.763283 2.948923 8.086974 -3.885142 -14.516054 0.000000 0.000000 0.000000 -28.846361 -12.439827 4.373397 -2.135025 3.069493 -0.145799 49.488953 -21.805264 -9.201733 0.000000 0.000000 0.000000 37.578996 3.895863 -0.406757 22.829584 -11.376207 -3.952815 -47.376122 36.845187 -14.232674 0.000000 0.000000 0.000000 
-0.496880 0.920475 -0.868875 -3.291010 -11.105822 -8.955113 3.294979 0.802990 8.621613 -19.037050 3.441881 3.531987 11.296076 22.749969 8.455301 0.000000 0.000000 0.000000 -13.324096 0.368914 -12.448833 2.401261 1.526239 30.044363 -3.311193 -14.286179 20.679801 0.000000 0.000000 0.000000 2.829356 -0.908266 22.154439 -2.710416 1.501208 4.153471 -0.353526 5.893631 1.837886 7.735136 -3.623600 -14.572936 0.000000 0.000000 0.000000 -28.268490 -12.232617 4.226638 -1.480749 1.837994 -0.093525 47.368485 -19.294054 -7.670910 0.000000 0.000000 0.000000 37.386892 3.211116 -1.046702 23.444902 -10.801500 -3.927314 -45.987116 34.257736 -12.636942 0.000000 0.000000 0.000000 
-0.498732 0.921870 -0.871986 -2.697748 -10.694250 -9.301185 2.729818 0.864719 9.080275 -18.811333 3.273412 2.878550 11.041799 22.262848 9.016553 0.000000 0.000000 0.000000 -13.632319 0.326608 -11.813510 1.623678 1.627363 28.491605 -3.255669 -14.240376 20.966607 0.000000 0.000000 0.000000 2.940189 -0.905600 20.844125 -2.551143 1.391595 3.760103 0.071463 4.816594 2.940780 6.864830 -3.150201 -14.978718 0.000000 0.000000 0.000000 -28.150931 -12.119680 4.659962 -0.237711 1.347195 0.033610 45.723160 -16.098481 -6.112248 0.000000 0.000000 0.000000 38.040595 3.565964 -1.365806 23.205086 -9.909048 -3.684710 -46.576622 32.254222 -12.067722 0.000000 0.000000 0.000000 
-0.505293 0.923792 -0.876141 -2.212569 -10.245354 -9.530450 2.846323 0.859624 9.154373 -18.962763 3.247655 2.697873 10.740605 21.675485 9.756528 0.000000 0.000000 0.000000 -14.035972 0.283346 -11.449468 1.383648 1.477136 26.343067 -2.615469 -13.343950 21.314163 0.000000 0.000000 0.000000 2.741254 -0.881773 20.593301 -2.025891 1.095085 3.612333 0.009024 4.782496 2.375226 6.638494 -2.979366 -14.959264 0.000000 0.000000 0.000000 -28.253130 -12.188903 4.613590 1.422849 0.228474 0.171718 42.349048 -13.860800 -4.774370 0.000000 0.000000 0.000000 38.887503 3.156819 -1.703346 23.399440 -9.112430 -3.584988 -45.852325 30.454932 -11.086494 0.000000 0.000000 0.000000 
-0.515901 0.926284 -0.881413 -1.831967 -9.472613 -9.496840 3.045086 0.854534 9.387924 -18.618331 2.991974 1.759674 10.324351 20.946064 10.237339 0.000000 0.000000 0.000000 -13.957141 0.255329 -11.130817 1.240010 1.351799 24.998691 -2.948308 -13.710453 21.130189 0.000000 0.000000 0.000000 2.677345 -0.894416 20.426467 -1.393195 0.744447 3.648358 -0.168503 4.406090 2.750251 6.916049 -3.137410 -15.164598 0.000000 0.000000 0.000000 -27.107692 -11.813906 4.387820 1.820063 -0.034761 0.201449 39.250604 -13.152139 -4.137632 0.000000 0.000000 0.000000 38.996010 3.360067 -1.551785 24.148310 -7.858356 -3.522645 -46.110757 29.086792 -10.590247 0.000000 0.000000 0.000000 
-0.529764 0.927100 -0.887820 -1.411013 -8.696073 -9.395286 3.327158 0.798902 9.110251 -18.179988 2.822655 1.473820 10.070569 20.529913 10.087025 0.000000 0.000000 0.000000 -14.061060 0.210065 -11.739734 1.486514 1.132591 23.887962 -3.158928 -13.801957 20.459016 0.000000 0.000000 0.000000 2.690227 -0.939498 20.906991 -0.625370 0.325381 3.983534 -0.138102 4.546536 2.314196 7.002161 -3.065189 -15.590381 0.000000 0.000000 0.000000 -26.776453 -11.751955 4.126322 1.646346 -0.209291 0.168642 35.880750 -12.585360 -3.548144 0.000000 0.000000 0.000000 38.642248 4.004083 -0.765963 25.743399 -6.434433 -3.567409 -46.081421 27.338983 -9.811698 0.000000 0.000000 0.000000 
